<?xml version="1.0" encoding="UTF-8"?>
<!DOCTYPE svg PUBLIC "-//W3C//DTD SVG 1.1//EN" "http://www.w3.org/Graphics/SVG/1.1/DTD/svg11.dtd">
<!-- Creator: CorelDRAW 2020 (64-Bit) -->
<svg xmlns="http://www.w3.org/2000/svg" xml:space="preserve" width="43.0247mm" height="42.3333mm" version="1.1" style="shape-rendering:geometricPrecision; text-rendering:geometricPrecision; image-rendering:optimizeQuality; fill-rule:evenodd; clip-rule:evenodd"
viewBox="0 0 1073.38 1056.14"
 xmlns:xlink="http://www.w3.org/1999/xlink"
 xmlns:xodm="http://www.corel.com/coreldraw/odm/2003">
 <defs>
  <style type="text/css">
   <![CDATA[
    .fil0 {fill:none}
    .fil1 {fill:#8BC4E2}
   ]]>
  </style>
 </defs>
 <g id="Capa_x0020_1">
  <metadata id="CorelCorpID_0Corel-Layer"/>
  <rect class="fil0" x="8.62" y="-0" width="1056.14" height="1056.14"/>
  <g id="_2929190675280">
   <path class="fil1" d="M153.04 643.08l767.3 0c20.46,0 21.14,12.48 25.6,31.63 3.66,15.7 8.54,32.27 12.58,49.47l49.6 193.76c4.16,16.02 9.49,33.03 13.04,49.16 4.75,21.56 -5.6,29.68 -25.35,29.68l-918.25 0c-18.98,0 -29.61,-7.71 -25.8,-27.72 1.75,-9.2 4.65,-16.91 6.49,-24.74 19.86,-84.5 48.04,-181.79 68.74,-267.65 4.82,-20 4.8,-33.58 26.04,-33.58zm-16.77 -81.62l0 -492.2c0,-15.69 11.98,-22.26 25.16,-22.26l750.53 0c16.28,0 25.16,7.6 25.16,27.21l0 487.25c0,12.22 -8.51,22.26 -18.87,22.26l-763.11 0c-10.36,0 -18.87,-10.04 -18.87,-22.26zm-50.32 -502.1l0 509.52c0,23.14 7.34,26.13 10.48,42.05 -16.37,28.83 -20.06,50.4 -28.46,85.14l-46.75 182.29c-7.09,26.17 -21.23,74.85 -21.23,101.1 0,40.39 30.92,76.67 64.99,76.67l943.41 0c34.92,0 64.99,-34.86 64.99,-84.09 0,-15.19 -16.49,-76.18 -21.23,-93.68 -8.01,-29.58 -15.72,-59.86 -23.55,-90.94 -4.51,-17.92 -35.65,-143.95 -41.8,-158.45 -4.11,-9.69 -5.67,-10.67 -9.86,-18.05 3.15,-15.92 10.48,-18.9 10.48,-42.05l0 -509.52c0,-14.28 -6.01,-26.83 -11.28,-36.16 -3.83,-6.77 -14.86,-23.2 -22.27,-23.2l-834.39 0c-10.27,0 -33.54,34.15 -33.54,59.36z"/>
   <path class="fil1" d="M199.16 729.65l675.06 0c0.75,10.71 4.72,26.6 6.81,38.96l20.44 124.29 -729.57 0 27.25 -163.24zm-60.8 225.08l796.65 0c11.43,0 20.56,-10.51 23.58,-21.82 3.02,-11.34 -1.49,-27.19 -3.84,-41.04l-28.3 -164.48c-4.65,-27.4 -5.01,-59.57 -33.37,-59.57l-712.79 0c-28.36,0 -28.73,32.17 -33.37,59.57 -4.68,27.57 -9.66,56.23 -14.34,82.02 -3.16,17.41 -21.49,109.67 -17.8,123.51 3.01,11.31 12.15,21.82 23.58,21.82z"/>
   <path class="fil1" d="M475.9 108.83c0,14.91 10.59,29.68 23.06,29.68l75.47 0c30.64,0 29.63,-59.36 0,-59.36l-75.47 0c-12.47,0 -23.06,14.76 -23.06,29.68z"/>
  </g>
 </g>
</svg>
