<?xml version="1.0" encoding="UTF-8"?>
<!DOCTYPE svg PUBLIC "-//W3C//DTD SVG 1.1//EN" "http://www.w3.org/Graphics/SVG/1.1/DTD/svg11.dtd">
<!-- Creator: CorelDRAW 2020 (64-Bit) -->
<svg xmlns="http://www.w3.org/2000/svg" xml:space="preserve" width="42.3333mm" height="42.3333mm" version="1.1" style="shape-rendering:geometricPrecision; text-rendering:geometricPrecision; image-rendering:optimizeQuality; fill-rule:evenodd; clip-rule:evenodd"
viewBox="0 0 569.99 569.99"
 xmlns:xlink="http://www.w3.org/1999/xlink"
 xmlns:xodm="http://www.corel.com/coreldraw/odm/2003">
 <defs>
  <style type="text/css">
   <![CDATA[
    .fil0 {fill:none}
    .fil1 {fill:#8BC4E2}
   ]]>
  </style>
 </defs>
 <g id="Capa_x0020_1">
  <metadata id="CorelCorpID_0Corel-Layer"/>
  <rect class="fil0" x="-0" y="-0" width="569.99" height="569.99"/>
  <g id="_2929392419008">
   <path class="fil1" d="M219.32 439.74l131.36 0 0 62.34 -131.36 0 0 -62.34zm48.98 -42.3c0,-33.58 44.53,-30.3 44.53,-1.11 0,28.71 -44.53,28.65 -44.53,1.11zm-253.83 -352.91c0,-10.47 10.67,-14.47 21.15,-14.47l498.74 0c10.49,0 21.15,4 21.15,14.47l0 310.6 -541.05 0 0 -310.6zm-14.47 -1.11l0 368.49c0,14.21 14.34,27.83 33.4,27.83l171.44 0 0 62.34 -29.72 13.7c-9.71,4.68 -7.02,7.36 -7.02,30.83 0,3.01 0.53,3.07 1.11,5.57 2.69,1.29 4.87,2.23 8.91,2.23l214.86 0c12.18,0 8.91,-13.1 8.91,-30.06 0,-6.73 -7.39,-9.31 -16.06,-12.89 -6.49,-2.68 -15.18,-8.09 -20.68,-9.38l0 -62.34 171.44 0c9.58,0 17.33,-2.81 22.55,-7.51 5.01,-4.5 10.85,-11.37 10.85,-20.33l0 -368.49c0,-8.71 -5.5,-15.34 -10.28,-19.78 -5.62,-5.23 -12.62,-8.05 -23.12,-8.05l-503.2 0c-10.07,0 -17.02,2.58 -22.55,7.51 -5.01,4.48 -10.85,11.38 -10.85,20.32z"/>
   <path class="fil1" d="M80.16 72.36l409.68 0c12.12,0 9.5,-14.47 2.23,-14.47l-413.02 0c-10.1,0 -10.22,14.47 1.11,14.47z"/>
   <path class="fil1" d="M79.04 329.53l413.02 0c7.27,0 9.9,-14.47 -2.23,-14.47l-409.68 0c-11.34,0 -11.22,14.47 -1.11,14.47z"/>
   <path class="fil1" d="M76.82 145.84l0 57.89c0,19.01 6.22,34.51 21.2,42.26 11.02,5.71 23.9,6.13 35.25,0.82 14.3,-6.69 22.6,-20.4 22.6,-36.4l0 -67.91c0,-2.68 -4,-6.68 -6.68,-6.68 -10.97,0 -7.79,14.32 -7.79,25.61 0,14.77 2.25,52.69 -3.27,63.52 -7.86,15.42 -30.96,18.47 -42.58,1.26 -5.42,-8.02 -3.13,-52.07 -3.12,-64.79 0,-10.39 2.36,-26.72 -7.79,-26.72 -5.56,0 -7.79,5.31 -7.79,11.13z"/>
   <path class="fil1" d="M372.95 142.5l0 71.25c0,18.95 17.97,36.74 38.96,36.74 20.57,0 38.96,-16.45 38.96,-36.74l0 -72.36c0,-4.5 -6.23,-7.12 -9.91,-5.54 -4.8,2.06 -4.65,6.41 -4.59,13.3 0.11,11.18 1.35,64.57 -1.16,71.21 -7.72,20.46 -38.1,21.4 -46.05,0.55 -3.34,-8.75 -1.84,-58.7 -1.72,-71.76 0.2,-21.84 -14.5,-14.42 -14.5,-6.65z"/>
   <path class="fil1" d="M182.58 243.81c0,4.57 3.08,6.68 7.79,6.68 8.43,0 18.63,-36.08 25.61,-41.19 0.96,4.1 2.91,6.97 4.82,10.76l10.75 22.65c6.07,12.64 13.78,7.52 15.56,3.21 2.06,-4.97 -3.9,-13.34 -7.38,-20.3 -4.77,-9.53 -8.49,-18.46 -13.42,-27.83 -3.7,-7.04 -2.09,-6.15 1.54,-13.36 7,-13.92 31.86,-49.72 13.74,-49.72 -5.86,0 -10.5,11.26 -14.49,18.91 -2.67,5.12 -8.39,19.46 -12.23,22.28 -1.2,-5.14 -7.65,-16.42 -10.39,-21.89 -4.97,-9.94 -7.07,-19.3 -15.21,-19.3 -2.47,0 -4.84,2.66 -5.68,4.44 -3.03,6.36 15.52,35.85 21.19,49.17 3.31,7.77 -1.49,11.87 -9.2,27.29 -2.49,4.98 -12.99,23.87 -12.99,28.2z"/>
   <path class="fil1" d="M355.13 101.31c-5.25,-1.25 -9.39,-3.54 -13.1,5.83l-58.79 156.07c-1.74,4.55 -3.1,7.77 -4.62,12.19 -1.62,4.75 -1.38,8.62 3.14,10.71 9.39,4.36 11.87,-9.26 14.37,-15.58l58.9 -157.11c2.08,-5.93 2.79,-6.52 0.11,-12.11z"/>
   <path class="fil1" d="M478.71 143.61l0 97.97c0,11.98 14.47,10.33 14.47,3.34l0 -103.53c0,-7.05 -14.47,-9.68 -14.47,2.23z"/>
   <path class="fil1" d="M276.09 394.1c0,29.83 42.77,11.73 24.84,-8.14 -9.86,-10.92 -24.84,-2.31 -24.84,8.14z"/>
  </g>
 </g>
</svg>
