<?xml version="1.0" encoding="UTF-8"?>
<!DOCTYPE svg PUBLIC "-//W3C//DTD SVG 1.1//EN" "http://www.w3.org/Graphics/SVG/1.1/DTD/svg11.dtd">
<!-- Creator: CorelDRAW 2020 (64-Bit) -->
<svg xmlns="http://www.w3.org/2000/svg" xml:space="preserve" width="42.3333mm" height="42.3333mm" version="1.1" style="shape-rendering:geometricPrecision; text-rendering:geometricPrecision; image-rendering:optimizeQuality; fill-rule:evenodd; clip-rule:evenodd"
viewBox="0 0 5010.42 5010.42"
 xmlns:xlink="http://www.w3.org/1999/xlink"
 xmlns:xodm="http://www.corel.com/coreldraw/odm/2003">
 <defs>
  <style type="text/css">
   <![CDATA[
    .fil0 {fill:none}
    .fil1 {fill:#8BC4E2}
   ]]>
  </style>
 </defs>
 <g id="Capa_x0020_1">
  <metadata id="CorelCorpID_0Corel-Layer"/>
  <rect class="fil0" x="-0" y="-0" width="5010.42" height="5010.42"/>
  <g id="_2929391840704">
   <path class="fil1" d="M1502.15 3082.58c-55.57,-4.63 -120.18,-18.72 -172.15,-33.36 -62.23,-17.52 -93.31,-41.32 -150.79,-54.7 0,-191.18 -5.78,-286.29 79.45,-400.06 121.41,-162.07 352.29,-217.04 521.79,-122.9 104.63,58.1 164.72,124.61 205.18,244.97 25.9,77.03 25.38,161.57 25.38,248.62 0,58.87 -276.11,116.18 -332.71,117.43l0 -166.36c-213.11,0 -176.15,-33.21 -176.15,166.36zm-156.57 -1066.68c0,-79.56 16.72,-130.59 70.51,-183.93 134.39,-133.28 418.79,-85.99 418.79,183.93 0,215.23 -270.68,312.28 -418.7,164.27 -32.23,-32.23 -70.6,-103.15 -70.6,-164.27zm-176.15 -9.79c0,197.8 135.06,278.99 146.79,322.95 -42.95,10 -90.97,53.32 -124.36,81.15 -118.24,98.52 -188.79,287.05 -188.79,457.08 -78.3,-52.44 -157.7,-163.68 -209.91,-250.04 -82.31,-136.12 -84.62,-234.75 -113.03,-356.69 33,0 65.81,0.59 98.7,0.84 82.74,0.64 67.66,14.9 67.66,-176.99l-166.36 0c9.46,-113.74 50.51,-231.82 91.17,-319.85 29.94,-64.85 121.2,-190.7 170.75,-240.25 19.03,-19.03 30.99,-22.57 53.67,-44.18 116.52,-110.97 352.08,-217.74 506.42,-217.74l0 156.57 176.15 0 0 -156.57c248.06,0 504.34,175.22 654.29,373.24 80.88,106.83 167.73,301.9 167.73,448.78l-156.59 0 0 176.15 156.59 0c0,130.36 -63.39,262.61 -107.56,352.38 -29.12,59.19 -153.61,237.86 -215.39,254.35 0,-241.97 -102.13,-431.75 -303.36,-538.23 18.65,-69.87 137,-97.88 137,-352.3 0,-101.29 -64.14,-211.74 -114.83,-266.81 -20.1,-21.82 -84.44,-68.01 -113.35,-82.38 -284,-141.07 -613.41,68.15 -613.41,378.54zm0 -831.8c-93.02,21.67 -232.2,121.78 -300.82,188.48 -23.08,22.45 -34.1,24.41 -53.78,44.08 -19.03,19.03 -22.57,31 -44.18,53.67 -112.82,118.47 -197.57,302.69 -237.45,467.14 -47.21,194.7 59.49,156.72 -283.65,156.72 0,223.16 -54.82,176.15 264.22,176.15 0,358 285.59,728.82 554.38,864.58 110.86,55.99 245.63,110.39 367.56,121.74 35.67,3.33 47.17,-7.1 61.86,16.42 31.53,50.42 -35.98,249.86 33.93,249.86l146.8 0c0,-325.29 -18.39,-253.51 85.45,-266.83 86.73,-11.13 211.8,-53.25 292.19,-89.47 342.73,-154.43 588.73,-514.21 620.52,-896.3l254.44 0 0 -176.15 -254.44 0c-2.72,-122.37 -65.47,-305.93 -107.42,-391.65 -165.84,-338.96 -509.09,-574.75 -890.74,-606.52l0 -254.43 -176.15 0 0 254.43c-33.09,2.76 -133.97,18.51 -156.57,29.36l0 -440.37 1330.88 0 0 -176.15 -1330.88 0c0,-122.64 -10.92,-177.37 90.2,-271.88 48.19,-45.05 123.13,-60.85 213.16,-60.85 251.13,0 1727,-18 1853.38,15.74 50.99,13.61 60.41,30.24 94.03,52.76 27.83,-41.55 81.04,-87.5 107.65,-127.22 -32.44,-48.44 -159.78,-107.65 -244.65,-107.65l-1908.26 0c-91.24,0 -199.03,66.32 -257.07,124.58 -34.24,34.36 -57.37,69.07 -81.56,114.15 -22.09,41.14 -31.12,100.45 -39.14,156.59 -11.23,78.62 -3.88,649.96 -3.88,779z"/>
   <path class="fil1" d="M2803.68 3836.1c44.38,-83.88 38.66,-131.39 38.81,-254.76 0.26,-207.74 78.28,-390.41 272.81,-461.14 38.22,-13.9 75.36,-17.67 118.96,-27.83 26.43,39.47 208.59,213.48 266.67,271.56 20.69,20.69 85.63,71.04 85.63,100.31 0,157.58 -115.29,274.81 -241.2,336.17 -117.99,57.51 -394.7,35.7 -541.68,35.7zm2201.85 -1953.3l0 123.32c0,57.39 -152.23,224.49 -202.95,276.58l-396.36 445.22c-159.14,180.13 -342.91,400.05 -504.14,572.32 -24.77,26.48 -30.78,41.31 -58.57,68.63 -96.16,94.59 -75.07,91.24 -85.04,149.83 -44.1,259.45 -271.66,493.55 -582.92,493.55l-577.37 0c-48.37,0 -88.08,-39.71 -88.08,-88.07 0,-91.68 96.67,-65.18 147.06,-185.68 55.99,-133.9 -78.16,-454.3 262.38,-706.42 197.31,-146.09 267.32,-61.04 351.54,-147.54 56.46,-57.97 400.38,-345.35 423.12,-379.33 -29.42,-11.87 -14.51,21.41 -20.67,-38.04l1.09 -617.62c0,-221.65 -41.46,-185.93 176.15,-185.93l0 704.59c91.12,-61.01 432.23,-389.71 553.67,-483.64 86.18,-66.66 286.35,-327.67 499.52,-168.33 76.65,57.28 96.97,105.68 101.55,166.56zm-1321.11 1415.07l-295.99 -291.17 337.75 -293.37c15.46,-15.01 22.78,-24.96 39.4,-38.88l210.05 -181.39c16.3,-15.26 22.72,-24.37 40.05,-38.23l542.31 -475.44c15.46,-15.02 22.78,-24.96 39.4,-38.88 44.51,-37.27 107.34,-100.75 143.91,-100.75 61.62,0 158.95,62.24 61.94,179.36l-319.27 365.77c-13.92,16.62 -23.86,23.94 -38.87,39.4l-605.57 686.18c-31.97,40.04 -146.31,154.42 -155.12,187.39z"/>
   <path class="fil1" d="M3018.97 499.09l1634.27 0c22.55,0 29.35,6.81 29.35,29.35l0 802.46 -1663.62 0 0 -831.81zm-176.15 -78.29l0 998.17c0,60.08 46.59,88.08 107.65,88.08l1790.84 0c47.08,0 107.65,-26.84 107.65,-68.5l0 -1037.31c0,-27.26 -41.25,-68.5 -68.5,-68.5l-1849.55 0c-53.28,0 -88.08,34.8 -88.08,88.07z"/>
   <path class="fil1" d="M171.25 3924.18l1644.04 0c22.55,0 29.35,6.81 29.35,29.35l0 469.73 -1673.4 0 0 -499.09zm998.17 -166.36l-1096.03 0c-27.26,0 -68.5,41.24 -68.5,68.49l0 685.02c0,62.07 55.94,88.07 117.43,88.07l1771.27 0c61.5,0 117.42,-26 117.42,-88.07l0 -685.02c0,-27.26 -41.24,-68.49 -68.49,-68.49l-596.94 0 0 -420.8 -176.15 0 0 420.8z"/>
   <path class="fil1" d="M3674.63 4168.83l-1497.26 0 0 176.15 1497.26 0c0,224.7 55.18,499.09 -303.36,499.09l-1722.34 0c-98.66,0 -239.6,-35.03 -264.22,-127.22 -58.37,13.6 -103.57,64.14 -156.57,78.29 24.93,93.36 204.39,215.29 332.72,215.29l1898.47 0c205.43,0 391.44,-188.83 391.44,-459.95l0 -714.38 -176.15 0 0 332.72z"/>
   <path class="fil1" d="M171.25 528.44c0,-22.55 6.81,-29.35 29.35,-29.35l636.1 0 0 499.09 -665.45 0 0 -469.73zm-166.36 -127.21l0 685.01c0,60.08 46.57,88.08 107.65,88.08l782.88 0c80.53,0 117.43,-36.89 117.43,-117.43l0 -616.52c0,-61.07 -28,-107.65 -88.08,-107.65l-851.37 0c-27.26,0 -68.5,41.25 -68.5,68.5z"/>
   <polygon class="fil1" points="3175.54,1174.32 4516.23,1174.32 4516.23,998.17 3175.54,998.17 "/>
   <path class="fil1" d="M3674.63 812.23c0,22.55 6.82,29.36 29.36,29.36l812.23 0 0 -176.15 -841.6 0 0 146.79z"/>
   <polygon class="fil1" points="924.77,4256.91 1678.3,4256.91 1678.3,4090.54 924.77,4090.54 "/>
   <polygon class="fil1" points="337.61,4256.91 758.41,4256.91 758.41,4090.54 337.61,4090.54 "/>
   <path class="fil1" d="M3175.54 841.6l313.15 0c22.56,0 29.36,-6.82 29.36,-29.36l0 -146.79 -342.51 0 0 176.15z"/>
   <path class="fil1" d="M337.61 841.6l313.15 0c22.55,0 29.36,-6.82 29.36,-29.36l0 -146.79 -342.51 0 0 176.15z"/>
   <polygon class="fil1" points="2422.02,4677.7 2598.17,4677.7 2598.17,4511.34 2422.02,4511.34 "/>
  </g>
 </g>
</svg>
