<?xml version="1.0" encoding="UTF-8"?>
<!DOCTYPE svg PUBLIC "-//W3C//DTD SVG 1.1//EN" "http://www.w3.org/Graphics/SVG/1.1/DTD/svg11.dtd">
<!-- Creator: CorelDRAW 2020 (64-Bit) -->
<svg xmlns="http://www.w3.org/2000/svg" xml:space="preserve" width="42.3333mm" height="42.3333mm" version="1.1" style="shape-rendering:geometricPrecision; text-rendering:geometricPrecision; image-rendering:optimizeQuality; fill-rule:evenodd; clip-rule:evenodd"
viewBox="0 0 1231.47 1231.47"
 xmlns:xlink="http://www.w3.org/1999/xlink"
 xmlns:xodm="http://www.corel.com/coreldraw/odm/2003">
 <defs>
  <style type="text/css">
   <![CDATA[
    .fil0 {fill:none}
    .fil1 {fill:#8BC4E2}
   ]]>
  </style>
 </defs>
 <g id="Capa_x0020_1">
  <metadata id="CorelCorpID_0Corel-Layer"/>
  <rect class="fil0" x="-0" y="-0" width="1231.47" height="1231.47"/>
  <g id="_2929391331168">
   <path class="fil1" d="M970.24 1030.38l-68.63 0c0,117.07 11.64,120.9 -80.46,120.9l-404.69 0c-36.05,0 -68.95,5.23 -79.53,-22.27 -6.82,-17.72 -3.3,-73.93 -3.3,-98.63l-71 0c0,41.31 -6.3,97.29 7.84,127.27 21.01,44.53 53.15,60 92.06,64.72l115.45 0 385.27 0c11.89,-0.32 19.96,-0.73 22.89,-1.26 35.21,-6.33 64.6,-32.46 77.01,-60.34 3.93,-8.84 6.03,-22.5 7.08,-38.03l0 -92.37z"/>
   <path class="fil1" d="M262.63 201.06l71 0c0,-23.68 -2.86,-79.93 2.71,-96.83 9.31,-28.29 40.5,-24.04 77.76,-24.04l404.69 0c36.05,0 68.95,-5.23 79.53,22.27 6.82,17.72 3.3,73.9 3.3,98.6l68.63 0 0 -91.95c-0.95,-15.21 -2.85,-28.46 -6.36,-36.76 -12.12,-28.62 -41.61,-54.92 -75.74,-61.59 -3.72,-0.73 -15.43,-1.26 -32.63,-1.65l-372.77 0 -120.55 0c-38.58,4.77 -69.98,20.03 -90.92,63.13 -14.69,30.24 -8.62,86.4 -8.62,128.82z"/>
   <polygon class="fil1" points="262.63,841.89 333.63,841.89 333.63,459.85 262.63,459.85 "/>
   <polygon class="fil1" points="901.61,772.2 970.24,772.2 970.24,389.78 901.61,389.78 "/>
   <polygon class="fil1" points="262.63,459.85 333.63,459.85 333.63,201.06 262.63,201.06 "/>
   <polygon class="fil1" points="901.61,1030.38 970.24,1030.38 970.24,772.2 901.61,772.2 "/>
   <polygon class="fil1" points="262.63,1030.38 333.63,1030.38 333.63,841.89 262.63,841.89 "/>
   <polygon class="fil1" points="901.61,389.78 970.24,389.78 970.24,201.06 901.61,201.06 "/>
   <path class="fil1" d="M546.62 1039.9c0,23.01 11.53,40.28 30.77,40.28l80.47 0c40.86,0 40.86,-71.09 0,-71.09l-80.47 0c-14.51,0 -30.77,16.28 -30.77,30.81z"/>
   <path class="fil1" d="M582.12 182.09c0,59.53 71,45.38 71,9.48 0,-59.53 -71,-45.38 -71,-9.48z"/>
  </g>
 </g>
</svg>
